# xmcd
#
# Track frame offsets: 
#        150
#        13182
#        26690
#        39957
#        51290
#        65752
#        77172
#        88812
#        102065
#        115700
#        130562
#        142127
#        155185
#        165870
#        178582
#        191825
#        206210
#        219355
#        231290
#        245237
#        257942
#        271810
#
# Disc length: 3847 seconds
#
# Revision: 2
# Processed by: cddbd v1.5.2PL0 Copyright (c) Steve Scherf et al.
# Submitted via: ExactAudioCopyFreeDBPlugin 1.0
#
DISCID=420f0516
DTITLE=Ann Peebles - Ann Peebles:  St. Louis Woman - Memphis Soul [Hi 
DTITLE=Records box set]
DYEAR=1996
DGENRE=Soul
TTITLE0=I Don't Lend My Man
TTITLE1=I Pity the Fool
TTITLE2=You've Got the Papers
TTITLE3=Breaking Up Somebody's Home
TTITLE4=Bip Bam Thank You Mam
TTITLE5=I Can't Stand the Rain
TTITLE6=Being Here with You
TTITLE7=Come to Mama
TTITLE8=Games
TTITLE9=The Handwriting is on the Wall
TTITLE10=Do I Need You
TTITLE11=Livin' in, Lovin' Out
TTITLE12=You Got to Feed the Fire
TTITLE13=I'm Gonna Tear Your Playhouse Down
TTITLE14=Make Me Yours
TTITLE15=If This is Heaven
TTITLE16=If We Can't Trust Each Other
TTITLE17=Fill This World with Love
TTITLE18=Stand By Woman
TTITLE19=Boy I Gotta Have You
TTITLE20=You're More Than I Can Stand
TTITLE21=Mon Belle Amour (with Don Bryant)
EXTD=
EXTT0=
EXTT1=
EXTT2=
EXTT3=
EXTT4=
EXTT5=
EXTT6=
EXTT7=
EXTT8=
EXTT9=
EXTT10=
EXTT11=
EXTT12=
EXTT13=
EXTT14=
EXTT15=
EXTT16=
EXTT17=
EXTT18=
EXTT19=
EXTT20=
EXTT21=
PLAYORDER=
